<svg height="400pt" viewBox="-30 0 400 400" width="400pt" xmlns="http://www.w3.org/2000/svg"><path d="m23.5 328.398438v-288.398438c-.007812-22.09375 17.90625-40.0078125 40-40h236.300781c22.09375-.0078125 40.003907 17.90625 40 40v320c.003907 22.09375-17.90625 40.007812-40 40h-236.300781c-22.09375.007812-40.007812-17.90625-40-40zm93.898438-38.398438h128.402343c0-38.5-28.800781-66.800781-64.199219-66.800781-35.402343 0-64.203124 28.300781-64.203124 66.800781zm102.703124-141.5c0-21.261719-17.238281-38.5-38.5-38.5-21.265624 0-38.5 17.238281-38.5 38.5s17.234376 38.5 38.5 38.5c10.214844.011719 20.011719-4.039062 27.234376-11.261719 7.222656-7.222656 11.277343-17.023437 11.265624-27.238281zm0 0" fill="#e48e66"/><path d="m181.601562 0h-124.203124c-17.398438 0-31.5 16.800781-31.5 37.601562v324.796876c0 20.800781 14.101562 37.601562 31.5 37.601562h124.300781v-400zm0 0" fill="#d18162"/><path d="m245.800781 290h-128.402343c0-38.5 28.800781-66.800781 64.203124-66.800781 35.5 0 64.199219 28.300781 64.199219 66.800781zm0 0" fill="#f8ec7d"/><path d="m220.101562 148.5c0 21.261719-17.238281 38.5-38.5 38.5-21.265624 0-38.5-17.238281-38.5-38.5s17.234376-38.5 38.5-38.5c21.261719 0 38.5 17.238281 38.5 38.5zm0 0" fill="#f8ec7d"/><g fill="#63316d"><path d="m56.898438 61.601562h-46.898438c-5.523438 0-10 4.476563-10 10 0 5.519532 4.476562 10 10 10h46.898438c5.523437 0 10-4.480468 10-10 0-5.523437-4.476563-10-10-10zm0 0"/><path d="m56.898438 147.199219h-46.898438c-5.523438 0-10 4.476562-10 10 0 5.523437 4.476562 10 10 10h46.898438c5.523437 0 10-4.476563 10-10 0-5.523438-4.476563-10-10-10zm0 0"/><path d="m56.898438 232.800781h-46.898438c-5.523438 0-10 4.476563-10 10 0 5.523438 4.476562 10 10 10h46.898438c5.523437 0 10-4.476562 10-10 0-5.523437-4.476563-10-10-10zm0 0"/><path d="m56.898438 318.398438h-46.898438c-5.523438 0-10 4.480468-10 10 0 5.523437 4.476562 10 10 10h46.898438c5.523437 0 10-4.476563 10-10 0-5.519532-4.476563-10-10-10zm0 0"/></g></svg>